<mxfile host="app.diagrams.net" modified="2022-10-06T12:40:55.088Z" agent="5.0 (Windows)" etag="_vu8M3OK_aQBAaWhGusg" version="20.4.0" type="github">
  <diagram id="C5RBs43oDa-KdzZeNtuy" name="Page-1">
    <mxGraphModel dx="989" dy="537" grid="1" gridSize="10" guides="1" tooltips="1" connect="1" arrows="1" fold="1" page="1" pageScale="1" pageWidth="827" pageHeight="1169" math="0" shadow="0">
      <root>
        <mxCell id="WIyWlLk6GJQsqaUBKTNV-0" />
        <mxCell id="WIyWlLk6GJQsqaUBKTNV-1" parent="WIyWlLk6GJQsqaUBKTNV-0" />
        <mxCell id="OcUE6RxHn079kEbuYcz5-3" value="" style="edgeStyle=orthogonalEdgeStyle;rounded=0;orthogonalLoop=1;jettySize=auto;html=1;" edge="1" parent="WIyWlLk6GJQsqaUBKTNV-1" source="OcUE6RxHn079kEbuYcz5-0" target="OcUE6RxHn079kEbuYcz5-2">
          <mxGeometry relative="1" as="geometry" />
        </mxCell>
        <mxCell id="OcUE6RxHn079kEbuYcz5-0" value="&lt;div&gt;START&lt;/div&gt;" style="ellipse;whiteSpace=wrap;html=1;" vertex="1" parent="WIyWlLk6GJQsqaUBKTNV-1">
          <mxGeometry x="189" y="140" width="120" height="80" as="geometry" />
        </mxCell>
        <mxCell id="OcUE6RxHn079kEbuYcz5-1" value="&lt;div&gt;&lt;font style=&quot;font-size: 21px;&quot;&gt;&lt;span&gt;Mengurutkan&lt;/span&gt;&lt;span&gt; 3 &lt;/span&gt;&lt;span&gt;Bilangan&lt;/span&gt;&lt;span&gt; &lt;/span&gt;&lt;span&gt;Acak&lt;/span&gt;&lt;/font&gt;&lt;/div&gt;" style="text;html=1;resizable=0;autosize=1;align=center;verticalAlign=middle;points=[];fillColor=none;strokeColor=none;rounded=0;" vertex="1" parent="WIyWlLk6GJQsqaUBKTNV-1">
          <mxGeometry x="264" y="40" width="300" height="40" as="geometry" />
        </mxCell>
        <mxCell id="OcUE6RxHn079kEbuYcz5-5" value="" style="edgeStyle=orthogonalEdgeStyle;rounded=0;orthogonalLoop=1;jettySize=auto;html=1;" edge="1" parent="WIyWlLk6GJQsqaUBKTNV-1" source="OcUE6RxHn079kEbuYcz5-2" target="OcUE6RxHn079kEbuYcz5-4">
          <mxGeometry relative="1" as="geometry" />
        </mxCell>
        <mxCell id="OcUE6RxHn079kEbuYcz5-2" value="&lt;div&gt;input 3 bilangan &lt;br&gt;&lt;/div&gt;&lt;div&gt;acak&lt;br&gt;&lt;/div&gt;&lt;div&gt;h, i, j&lt;br&gt;&lt;/div&gt;" style="shape=parallelogram;perimeter=parallelogramPerimeter;whiteSpace=wrap;html=1;fixedSize=1;" vertex="1" parent="WIyWlLk6GJQsqaUBKTNV-1">
          <mxGeometry x="189" y="250" width="120" height="60" as="geometry" />
        </mxCell>
        <mxCell id="OcUE6RxHn079kEbuYcz5-9" value="" style="edgeStyle=orthogonalEdgeStyle;rounded=0;orthogonalLoop=1;jettySize=auto;html=1;fontSize=21;" edge="1" parent="WIyWlLk6GJQsqaUBKTNV-1" source="OcUE6RxHn079kEbuYcz5-4" target="OcUE6RxHn079kEbuYcz5-8">
          <mxGeometry relative="1" as="geometry" />
        </mxCell>
        <mxCell id="OcUE6RxHn079kEbuYcz5-11" value="" style="edgeStyle=orthogonalEdgeStyle;rounded=0;orthogonalLoop=1;jettySize=auto;html=1;fontSize=21;" edge="1" parent="WIyWlLk6GJQsqaUBKTNV-1" source="OcUE6RxHn079kEbuYcz5-4" target="OcUE6RxHn079kEbuYcz5-10">
          <mxGeometry relative="1" as="geometry" />
        </mxCell>
        <mxCell id="OcUE6RxHn079kEbuYcz5-4" value="&lt;div&gt;if:&lt;/div&gt;&lt;div&gt;h &amp;gt; i&lt;/div&gt;&lt;div&gt;h &amp;gt; j&lt;br&gt;&lt;/div&gt;" style="rhombus;whiteSpace=wrap;html=1;" vertex="1" parent="WIyWlLk6GJQsqaUBKTNV-1">
          <mxGeometry x="199" y="340" width="100" height="100" as="geometry" />
        </mxCell>
        <mxCell id="OcUE6RxHn079kEbuYcz5-15" value="" style="edgeStyle=orthogonalEdgeStyle;rounded=0;orthogonalLoop=1;jettySize=auto;html=1;fontSize=21;" edge="1" parent="WIyWlLk6GJQsqaUBKTNV-1" source="OcUE6RxHn079kEbuYcz5-8" target="OcUE6RxHn079kEbuYcz5-14">
          <mxGeometry relative="1" as="geometry" />
        </mxCell>
        <mxCell id="OcUE6RxHn079kEbuYcz5-17" value="" style="edgeStyle=orthogonalEdgeStyle;rounded=0;orthogonalLoop=1;jettySize=auto;html=1;fontSize=21;" edge="1" parent="WIyWlLk6GJQsqaUBKTNV-1" source="OcUE6RxHn079kEbuYcz5-8" target="OcUE6RxHn079kEbuYcz5-16">
          <mxGeometry relative="1" as="geometry" />
        </mxCell>
        <mxCell id="OcUE6RxHn079kEbuYcz5-8" value="i &amp;gt; j" style="rhombus;whiteSpace=wrap;html=1;" vertex="1" parent="WIyWlLk6GJQsqaUBKTNV-1">
          <mxGeometry x="339" y="350" width="80" height="80" as="geometry" />
        </mxCell>
        <mxCell id="OcUE6RxHn079kEbuYcz5-19" value="" style="edgeStyle=orthogonalEdgeStyle;rounded=0;orthogonalLoop=1;jettySize=auto;html=1;fontSize=21;" edge="1" parent="WIyWlLk6GJQsqaUBKTNV-1" source="OcUE6RxHn079kEbuYcz5-10" target="OcUE6RxHn079kEbuYcz5-18">
          <mxGeometry relative="1" as="geometry" />
        </mxCell>
        <mxCell id="OcUE6RxHn079kEbuYcz5-25" value="" style="edgeStyle=orthogonalEdgeStyle;rounded=0;orthogonalLoop=1;jettySize=auto;html=1;fontSize=21;" edge="1" parent="WIyWlLk6GJQsqaUBKTNV-1" source="OcUE6RxHn079kEbuYcz5-10" target="OcUE6RxHn079kEbuYcz5-24">
          <mxGeometry relative="1" as="geometry" />
        </mxCell>
        <mxCell id="OcUE6RxHn079kEbuYcz5-10" value="&lt;div&gt;i &amp;gt; h&lt;/div&gt;&lt;div&gt;i &amp;gt; j&lt;br&gt;&lt;/div&gt;" style="rhombus;whiteSpace=wrap;html=1;" vertex="1" parent="WIyWlLk6GJQsqaUBKTNV-1">
          <mxGeometry x="199" y="542" width="100" height="85" as="geometry" />
        </mxCell>
        <mxCell id="OcUE6RxHn079kEbuYcz5-12" value="&lt;div&gt;T&lt;/div&gt;" style="text;html=1;resizable=0;autosize=1;align=center;verticalAlign=middle;points=[];fillColor=none;strokeColor=none;rounded=0;fontSize=21;" vertex="1" parent="WIyWlLk6GJQsqaUBKTNV-1">
          <mxGeometry x="289" y="360" width="40" height="40" as="geometry" />
        </mxCell>
        <mxCell id="OcUE6RxHn079kEbuYcz5-13" value="&lt;div&gt;F&lt;/div&gt;" style="text;html=1;resizable=0;autosize=1;align=center;verticalAlign=middle;points=[];fillColor=none;strokeColor=none;rounded=0;fontSize=21;" vertex="1" parent="WIyWlLk6GJQsqaUBKTNV-1">
          <mxGeometry x="240.5" y="433" width="40" height="40" as="geometry" />
        </mxCell>
        <mxCell id="OcUE6RxHn079kEbuYcz5-55" style="edgeStyle=orthogonalEdgeStyle;rounded=0;orthogonalLoop=1;jettySize=auto;html=1;fontSize=16;" edge="1" parent="WIyWlLk6GJQsqaUBKTNV-1" source="OcUE6RxHn079kEbuYcz5-14">
          <mxGeometry relative="1" as="geometry">
            <mxPoint x="639" y="495.5" as="targetPoint" />
          </mxGeometry>
        </mxCell>
        <mxCell id="OcUE6RxHn079kEbuYcz5-14" value="&lt;div&gt;output&lt;/div&gt;&lt;div&gt;i, j, h&lt;br&gt;&lt;/div&gt;" style="shape=parallelogram;perimeter=parallelogramPerimeter;whiteSpace=wrap;html=1;fixedSize=1;" vertex="1" parent="WIyWlLk6GJQsqaUBKTNV-1">
          <mxGeometry x="321.5" y="473" width="115" height="45" as="geometry" />
        </mxCell>
        <mxCell id="OcUE6RxHn079kEbuYcz5-50" style="edgeStyle=orthogonalEdgeStyle;rounded=0;orthogonalLoop=1;jettySize=auto;html=1;fontSize=16;" edge="1" parent="WIyWlLk6GJQsqaUBKTNV-1" source="OcUE6RxHn079kEbuYcz5-16" target="OcUE6RxHn079kEbuYcz5-48">
          <mxGeometry relative="1" as="geometry">
            <Array as="points">
              <mxPoint x="639" y="390" />
              <mxPoint x="639" y="1028" />
            </Array>
          </mxGeometry>
        </mxCell>
        <mxCell id="OcUE6RxHn079kEbuYcz5-16" value="&lt;div&gt;output&lt;/div&gt;&lt;div&gt;j, i, h&lt;br&gt;&lt;/div&gt;" style="shape=parallelogram;perimeter=parallelogramPerimeter;whiteSpace=wrap;html=1;fixedSize=1;" vertex="1" parent="WIyWlLk6GJQsqaUBKTNV-1">
          <mxGeometry x="453" y="370" width="120" height="40" as="geometry" />
        </mxCell>
        <mxCell id="OcUE6RxHn079kEbuYcz5-21" value="" style="edgeStyle=orthogonalEdgeStyle;rounded=0;orthogonalLoop=1;jettySize=auto;html=1;fontSize=21;" edge="1" parent="WIyWlLk6GJQsqaUBKTNV-1" source="OcUE6RxHn079kEbuYcz5-18" target="OcUE6RxHn079kEbuYcz5-20">
          <mxGeometry relative="1" as="geometry" />
        </mxCell>
        <mxCell id="OcUE6RxHn079kEbuYcz5-23" value="" style="edgeStyle=orthogonalEdgeStyle;rounded=0;orthogonalLoop=1;jettySize=auto;html=1;fontSize=21;" edge="1" parent="WIyWlLk6GJQsqaUBKTNV-1" source="OcUE6RxHn079kEbuYcz5-18" target="OcUE6RxHn079kEbuYcz5-22">
          <mxGeometry relative="1" as="geometry" />
        </mxCell>
        <mxCell id="OcUE6RxHn079kEbuYcz5-18" value="h &amp;gt; j" style="rhombus;whiteSpace=wrap;html=1;" vertex="1" parent="WIyWlLk6GJQsqaUBKTNV-1">
          <mxGeometry x="339" y="552" width="80" height="65" as="geometry" />
        </mxCell>
        <mxCell id="OcUE6RxHn079kEbuYcz5-53" style="edgeStyle=orthogonalEdgeStyle;rounded=0;orthogonalLoop=1;jettySize=auto;html=1;fontSize=16;" edge="1" parent="WIyWlLk6GJQsqaUBKTNV-1" source="OcUE6RxHn079kEbuYcz5-20">
          <mxGeometry relative="1" as="geometry">
            <mxPoint x="639" y="682.7499999999998" as="targetPoint" />
          </mxGeometry>
        </mxCell>
        <mxCell id="OcUE6RxHn079kEbuYcz5-20" value="&lt;div&gt;output&lt;/div&gt;&lt;div&gt;h, j, i&lt;br&gt;&lt;/div&gt;" style="shape=parallelogram;perimeter=parallelogramPerimeter;whiteSpace=wrap;html=1;fixedSize=1;" vertex="1" parent="WIyWlLk6GJQsqaUBKTNV-1">
          <mxGeometry x="324" y="660" width="110" height="45.5" as="geometry" />
        </mxCell>
        <mxCell id="OcUE6RxHn079kEbuYcz5-51" style="edgeStyle=orthogonalEdgeStyle;rounded=0;orthogonalLoop=1;jettySize=auto;html=1;fontSize=16;" edge="1" parent="WIyWlLk6GJQsqaUBKTNV-1" source="OcUE6RxHn079kEbuYcz5-22">
          <mxGeometry relative="1" as="geometry">
            <mxPoint x="639" y="584.25" as="targetPoint" />
          </mxGeometry>
        </mxCell>
        <mxCell id="OcUE6RxHn079kEbuYcz5-22" value="&lt;div&gt;output&lt;/div&gt;&lt;div&gt;j, h, i&lt;br&gt;&lt;/div&gt;" style="shape=parallelogram;perimeter=parallelogramPerimeter;whiteSpace=wrap;html=1;fixedSize=1;" vertex="1" parent="WIyWlLk6GJQsqaUBKTNV-1">
          <mxGeometry x="463" y="564" width="100" height="40.5" as="geometry" />
        </mxCell>
        <mxCell id="OcUE6RxHn079kEbuYcz5-27" value="" style="edgeStyle=orthogonalEdgeStyle;rounded=0;orthogonalLoop=1;jettySize=auto;html=1;fontSize=21;entryX=0;entryY=0.5;entryDx=0;entryDy=0;" edge="1" parent="WIyWlLk6GJQsqaUBKTNV-1" source="OcUE6RxHn079kEbuYcz5-24" target="OcUE6RxHn079kEbuYcz5-37">
          <mxGeometry relative="1" as="geometry">
            <mxPoint x="348.9766081871346" y="772.5555555555554" as="targetPoint" />
          </mxGeometry>
        </mxCell>
        <mxCell id="OcUE6RxHn079kEbuYcz5-39" value="" style="edgeStyle=orthogonalEdgeStyle;rounded=0;orthogonalLoop=1;jettySize=auto;html=1;fontSize=21;" edge="1" parent="WIyWlLk6GJQsqaUBKTNV-1" source="OcUE6RxHn079kEbuYcz5-24" target="OcUE6RxHn079kEbuYcz5-38">
          <mxGeometry relative="1" as="geometry" />
        </mxCell>
        <mxCell id="OcUE6RxHn079kEbuYcz5-24" value="h &amp;gt; i" style="rhombus;whiteSpace=wrap;html=1;" vertex="1" parent="WIyWlLk6GJQsqaUBKTNV-1">
          <mxGeometry x="199" y="730" width="100" height="85" as="geometry" />
        </mxCell>
        <mxCell id="OcUE6RxHn079kEbuYcz5-52" style="edgeStyle=orthogonalEdgeStyle;rounded=0;orthogonalLoop=1;jettySize=auto;html=1;fontSize=16;" edge="1" parent="WIyWlLk6GJQsqaUBKTNV-1" source="OcUE6RxHn079kEbuYcz5-37">
          <mxGeometry relative="1" as="geometry">
            <mxPoint x="639" y="772.5" as="targetPoint" />
          </mxGeometry>
        </mxCell>
        <mxCell id="OcUE6RxHn079kEbuYcz5-37" value="&lt;div&gt;output&lt;/div&gt;&lt;div&gt;j, i, h&lt;br&gt;&lt;/div&gt;" style="shape=parallelogram;perimeter=parallelogramPerimeter;whiteSpace=wrap;html=1;fixedSize=1;" vertex="1" parent="WIyWlLk6GJQsqaUBKTNV-1">
          <mxGeometry x="439" y="749.75" width="110" height="45.5" as="geometry" />
        </mxCell>
        <mxCell id="OcUE6RxHn079kEbuYcz5-49" value="" style="edgeStyle=orthogonalEdgeStyle;rounded=0;orthogonalLoop=1;jettySize=auto;html=1;fontSize=16;" edge="1" parent="WIyWlLk6GJQsqaUBKTNV-1" source="OcUE6RxHn079kEbuYcz5-38" target="OcUE6RxHn079kEbuYcz5-48">
          <mxGeometry relative="1" as="geometry" />
        </mxCell>
        <mxCell id="OcUE6RxHn079kEbuYcz5-56" style="edgeStyle=orthogonalEdgeStyle;rounded=0;orthogonalLoop=1;jettySize=auto;html=1;fontSize=16;" edge="1" parent="WIyWlLk6GJQsqaUBKTNV-1" source="OcUE6RxHn079kEbuYcz5-38">
          <mxGeometry relative="1" as="geometry">
            <mxPoint x="639" y="902.7499999999998" as="targetPoint" />
          </mxGeometry>
        </mxCell>
        <mxCell id="OcUE6RxHn079kEbuYcz5-38" value="&lt;div&gt;output&lt;/div&gt;&lt;div&gt;j, h, i&lt;br&gt;&lt;/div&gt;" style="shape=parallelogram;perimeter=parallelogramPerimeter;whiteSpace=wrap;html=1;fixedSize=1;" vertex="1" parent="WIyWlLk6GJQsqaUBKTNV-1">
          <mxGeometry x="194" y="880" width="110" height="45.5" as="geometry" />
        </mxCell>
        <mxCell id="OcUE6RxHn079kEbuYcz5-40" value="&lt;div&gt;&lt;font style=&quot;font-size: 15px;&quot;&gt;T&lt;/font&gt;&lt;/div&gt;" style="text;html=1;resizable=0;autosize=1;align=center;verticalAlign=middle;points=[];fillColor=none;strokeColor=none;rounded=0;fontSize=21;" vertex="1" parent="WIyWlLk6GJQsqaUBKTNV-1">
          <mxGeometry x="414" y="360" width="30" height="40" as="geometry" />
        </mxCell>
        <mxCell id="OcUE6RxHn079kEbuYcz5-41" value="&lt;div style=&quot;font-size: 16px;&quot;&gt;&lt;font style=&quot;font-size: 16px;&quot;&gt;F&lt;/font&gt;&lt;/div&gt;" style="text;html=1;resizable=0;autosize=1;align=center;verticalAlign=middle;points=[];fillColor=none;strokeColor=none;rounded=0;fontSize=21;" vertex="1" parent="WIyWlLk6GJQsqaUBKTNV-1">
          <mxGeometry x="373" y="430" width="30" height="30" as="geometry" />
        </mxCell>
        <mxCell id="OcUE6RxHn079kEbuYcz5-42" value="&lt;div&gt;T&lt;/div&gt;" style="text;html=1;resizable=0;autosize=1;align=center;verticalAlign=middle;points=[];fillColor=none;strokeColor=none;rounded=0;fontSize=21;" vertex="1" parent="WIyWlLk6GJQsqaUBKTNV-1">
          <mxGeometry x="285.5" y="551.5" width="40" height="40" as="geometry" />
        </mxCell>
        <mxCell id="OcUE6RxHn079kEbuYcz5-43" value="&lt;div&gt;F&lt;/div&gt;" style="text;html=1;resizable=0;autosize=1;align=center;verticalAlign=middle;points=[];fillColor=none;strokeColor=none;rounded=0;fontSize=21;" vertex="1" parent="WIyWlLk6GJQsqaUBKTNV-1">
          <mxGeometry x="238" y="627" width="40" height="40" as="geometry" />
        </mxCell>
        <mxCell id="OcUE6RxHn079kEbuYcz5-44" value="&lt;div&gt;&lt;font style=&quot;font-size: 15px;&quot;&gt;T&lt;/font&gt;&lt;/div&gt;" style="text;html=1;resizable=0;autosize=1;align=center;verticalAlign=middle;points=[];fillColor=none;strokeColor=none;rounded=0;fontSize=21;" vertex="1" parent="WIyWlLk6GJQsqaUBKTNV-1">
          <mxGeometry x="414" y="553" width="30" height="40" as="geometry" />
        </mxCell>
        <mxCell id="OcUE6RxHn079kEbuYcz5-45" value="&lt;div style=&quot;font-size: 16px;&quot;&gt;&lt;font style=&quot;font-size: 16px;&quot;&gt;F&lt;/font&gt;&lt;/div&gt;" style="text;html=1;resizable=0;autosize=1;align=center;verticalAlign=middle;points=[];fillColor=none;strokeColor=none;rounded=0;fontSize=21;" vertex="1" parent="WIyWlLk6GJQsqaUBKTNV-1">
          <mxGeometry x="371" y="617" width="30" height="30" as="geometry" />
        </mxCell>
        <mxCell id="OcUE6RxHn079kEbuYcz5-46" value="&lt;div&gt;&lt;font style=&quot;font-size: 15px;&quot;&gt;T&lt;/font&gt;&lt;/div&gt;" style="text;html=1;resizable=0;autosize=1;align=center;verticalAlign=middle;points=[];fillColor=none;strokeColor=none;rounded=0;fontSize=21;" vertex="1" parent="WIyWlLk6GJQsqaUBKTNV-1">
          <mxGeometry x="299" y="740" width="30" height="40" as="geometry" />
        </mxCell>
        <mxCell id="OcUE6RxHn079kEbuYcz5-47" value="&lt;div style=&quot;font-size: 16px;&quot;&gt;&lt;font style=&quot;font-size: 16px;&quot;&gt;F&lt;/font&gt;&lt;/div&gt;" style="text;html=1;resizable=0;autosize=1;align=center;verticalAlign=middle;points=[];fillColor=none;strokeColor=none;rounded=0;fontSize=21;" vertex="1" parent="WIyWlLk6GJQsqaUBKTNV-1">
          <mxGeometry x="243" y="820" width="30" height="30" as="geometry" />
        </mxCell>
        <mxCell id="OcUE6RxHn079kEbuYcz5-48" value="&lt;div&gt;END&lt;/div&gt;" style="ellipse;whiteSpace=wrap;html=1;" vertex="1" parent="WIyWlLk6GJQsqaUBKTNV-1">
          <mxGeometry x="189" y="998.25" width="120" height="60" as="geometry" />
        </mxCell>
      </root>
    </mxGraphModel>
  </diagram>
</mxfile>
